<?xml version="1.0" standalone="no"?><!DOCTYPE svg PUBLIC "-//W3C//DTD SVG 1.1//EN" "http://www.w3.org/Graphics/SVG/1.1/DTD/svg11.dtd"><svg t="1692672145275" class="icon" viewBox="0 0 1024 1024" version="1.1" xmlns="http://www.w3.org/2000/svg" p-id="4528" xmlns:xlink="http://www.w3.org/1999/xlink" width="200" height="200"><path d="M881.4 46.8H141.6C96.7 46.8 60 83.5 60 128.4v739.8c0 44.9 36.7 81.6 81.6 81.6h739.8c44.9 0 81.6-36.7 81.6-81.6V128.4c0-44.9-36.8-81.6-81.6-81.6z" fill="#00E2B2" p-id="4529"></path><path d="M511.5 865.9c-49.6 0-97.8-9.7-143.1-28.9-43.8-18.5-83.1-45-116.8-78.8-33.8-33.8-60.3-73.1-78.8-116.8-19.2-45.3-28.9-93.5-28.9-143.1s9.7-97.8 28.9-143.1c18.5-43.8 45-83.1 78.8-116.8 33.8-33.8 73.1-60.3 116.8-78.8 45.3-19.2 93.5-28.9 143.1-28.9s97.8 9.7 143.1 28.9c43.8 18.5 83.1 45 116.8 78.8 33.8 33.8 60.3 73.1 78.8 116.8 19.2 45.3 28.9 93.5 28.9 143.1s-9.7 97.8-28.9 143.1c-18.5 43.8-45 83.1-78.8 116.8-33.8 33.8-73.1 60.3-116.8 78.8-45.4 19.2-93.5 28.9-143.1 28.9z m0-715.2c-191.7 0-347.6 155.9-347.6 347.6s155.9 347.6 347.6 347.6S859.1 690 859.1 498.3s-156-347.6-347.6-347.6z" fill="#FFFFFF" p-id="4530"></path><path d="M440.2 396c-27.3 97.1-42.5 152.3-45.5 165.4-3 13.2-4.6 28.3-4.6 45.5v34.9c0 6.1-2 9.1-6.1 9.1-2 0-6.3-1.5-12.9-4.6-6.6-3-9.9-8.6-9.9-16.7 0-7.1 1-14.2 3-21.2 3-10.1 4.6-18.2 4.6-24.3s-2.3-10.9-6.8-14.4c-4.6-3.5-14.4-7.8-29.6-12.9v-6.1c18.2 3 29.8 4.1 34.9 3 5.1-1 10.1-5.8 15.2-14.4 5.1-8.6 22.2-56.9 51.6-144.9l6.1 1.6zM337 406.6c31.4 15.2 48 26.8 50.1 34.9 2 8.1 1 15.2-3 21.2-4.1 6.1-7.1 9.1-9.1 9.1-3 0-6.1-4.6-9.1-13.7-5.1-13.1-15.7-28.8-31.9-47l3-4.5z m34.9-86.5c28.3 14.2 43.5 24 45.5 29.6 2 5.6 3 9.4 3 11.4 0 6.1-1.8 11.6-5.3 16.7-3.6 5.1-5.8 7.6-6.8 7.6-3 0-6.1-4.6-9.1-13.7-5.1-13.1-15.2-28.8-30.4-47l3.1-4.6zM614.7 566c-17.2 18.2-34.9 34.9-53.1 50.1 40.5 19.2 81.4 28.3 122.9 27.3v6.1c-16.2 1-25.8 7.6-28.8 19.7-38.5-7.1-74.4-21.8-107.8-44-43.5 24.3-94.1 38.9-151.8 44l-1.5-4.6c58.7-10.1 104.7-26.8 138.1-50.1-16.2-15.2-32.4-33.4-48.6-54.6-7.1 0-14.7 1.5-22.8 4.6l-13.7-13.7h145.7l13.7-15.2 24.3 24.3-16.6 6.1z m-174.5-25.8c1-17.2 1.5-34.1 1.5-50.8 0-16.7-0.5-33.1-1.5-49.3l21.2 12.1h171.5l10.6-15.2 22.8 19.7-10.6 7.6c0 31.4 0.5 52.6 1.5 63.7l-21.2 7.6V522H461.4v10.6l-21.2 7.6z m21.2-78.9v51.6H507v-51.6h-45.6z m10.7-24.3c1-18.2 1.5-36.7 1.5-55.4 0-18.7-0.5-37.7-1.5-56.9l21.2 12.1h107.8l9.1-13.7 22.8 16.7-10.6 10.6c0 38.5 0.5 63.7 1.5 75.9l-19.7 9.1v-12.1H493.3v6.1l-21.2 7.6z m19.7 122.9c20.2 20.3 38.4 35.4 54.6 45.5 17.2-13.1 32.4-28.3 45.5-45.5H491.8z m1.5-214v28.8h110.8v-28.8H493.3z m0 38v30.4h110.8v-30.4H493.3z m31.9 77.4v51.6h47v-51.6h-47z m65.2 0v51.6H636v-51.6h-45.6z" fill="#FFFFFF" p-id="4531"></path></svg>